<?xml version='1.0' encoding='utf-8'?>
<svg xmlns="http://www.w3.org/2000/svg" clip-rule="evenodd" fill-rule="evenodd" stroke-linejoin="round" stroke-miterlimit="2" version="1.1" viewBox="0 0 500 500"> <path d="m240.5 389.92v-144.5c0-5.243 4.257-9.5 9.5-9.5s9.5 4.257 9.5 9.5v144.5l28.594-28.57c3.709-3.706 9.729-3.704 13.435 5e-3s3.704 9.729-5e-3 13.435l-44.809 44.771-0.044 0.044-0.044 0.042-0.044 0.043-0.088 0.084-0.045 0.042-0.09 0.082-0.045 0.04-0.045 0.041-0.046 0.039-0.046 0.04-0.138 0.117-0.047 0.038-0.046 0.038-0.094 0.074-0.048 0.037-0.047 0.036-0.048 0.037-0.048 0.035-0.048 0.036-0.096 0.07-0.049 0.034-0.048 0.034-0.049 0.034-0.098 0.066-0.05 0.033-0.049 0.033-0.05 0.032-0.049 0.031-0.05 0.032-0.05 0.031-0.051 0.03-0.05 0.031-0.051 0.03-0.05 0.03-0.153 0.087-0.051 0.028-0.052 0.028-0.051 0.027-0.052 0.028-0.052 0.027-0.052 0.026-0.052 0.027-0.052 0.026-0.052 0.025-0.053 0.025-0.052 0.025-0.053 0.025-0.053 0.024-0.052 0.024-0.053 0.024-0.054 0.023-0.053 0.023-0.053 0.022-0.054 0.023-6e-3 2e-3c-1.116 0.461-2.338 0.715-3.619 0.715s-2.503-0.254-3.619-0.715l-0.06-0.025-0.061-0.025-0.053-0.023-0.053-0.024-0.053-0.023-0.106-0.048-0.052-0.025-0.053-0.025-0.052-0.025-0.052-0.026-0.053-0.026-0.052-0.026-0.051-0.027-0.104-0.054-0.051-0.028-0.052-0.028-0.051-0.028-0.153-0.087-0.05-0.03-0.051-0.03-0.05-0.031-0.05-0.03-0.05-0.031-0.15-0.096-0.049-0.032-0.049-0.033-0.05-0.033-0.049-0.034-0.048-0.033-0.049-0.034-0.048-0.035-0.049-0.035-0.096-0.07-0.048-0.036-0.047-0.036-0.048-0.037-0.141-0.111-0.046-0.038-0.047-0.039-0.046-0.038-0.092-0.078-0.092-0.08-0.09-0.08-0.045-0.041-0.045-0.042-0.045-0.041-0.088-0.084-0.088-0.086-0.038-0.038-44.809-44.771c-3.709-3.706-3.711-9.726-5e-3 -13.435s9.726-3.711 13.435-5e-3l28.594 28.57zm-134.67-205.05c-35.692 4.606-63.269 35.113-63.269 72.062v4e-3c0 40.133 32.535 72.668 72.668 72.668h89.96c5.243 0 9.5-4.257 9.5-9.5s-4.257-9.5-9.5-9.5h-89.96c-29.64 0-53.668-24.028-53.668-53.668v-4e-3c0-29.506 23.811-53.451 53.263-53.666-0.069 0 9.343-7.216 9.427-9.498l4e-3 -4e-3c0-27.295 22.16-49.455 49.455-49.455 8.226 0 15.986 2.011 22.815 5.573 2.307 1.203 5.006 1.408 7.468 0.566 2.461-0.842 4.47-2.656 5.557-5.019 13.773-29.947 44.044-50.762 79.14-50.762 48.045 0 87.051 39.007 87.051 87.052 0 3.678-0.228 7.304-0.673 10.87-0.337 2.703 0.503 5.421 2.306 7.463 1.804 2.043 4.397 3.212 7.121 3.212h0.272c29.64 0 53.668 24.028 53.668 53.668v4e-3c0 29.64-24.028 53.668-53.668 53.668h-89.96c-5.243 0-9.5 4.257-9.5 9.5s4.257 9.5 9.5 9.5h89.96c40.133 0 72.668-32.535 72.668-72.668v-4e-3c0-36.766-27.304-67.155-62.743-71.99 0.033-1.07 0.049-2.145 0.049-3.223 0-58.532-47.52-106.05-106.05-106.05-39.436 0-73.875 21.57-92.147 53.55-7.144-2.53-14.829-3.908-22.833-3.908-34.767 0-63.515 25.974-67.88 59.561z" fill="#26b1e3"/> </svg>